[Header]
FileType HTR
DataType HTRS
FileVersion 1
NumSegments 64
NumFrames 3
DataFrameRate 24
EulerRotationOrder ZYX
CalibrationUnits mm
RotationUnits Degrees
GlobalAxisofGravity Y
BoneLengthAxis Y
ScaleFactor 1.0
[SegmentNames&Hierarchy]
Hips	GLOBAL
Spine	Hips
Spine1	Spine
Spine2	Spine1
Neck	Spine2
Head	Neck
LeftEye	Head
RightEye	Head
LeftShoulder	Spine2
LeftArm	LeftShoulder
LeftForeArm	LeftArm
LeftHand	LeftForeArm
LeftHandThumb1	LeftHand
LeftHandThumb2	LeftHandThumb1
LeftHandThumb3	LeftHandThumb2
LeftHandThumb4	LeftHandThumb3
LeftHandIndex1	LeftHand
LeftHandIndex2	LeftHandIndex1
LeftHandIndex3	LeftHandIndex2
LeftHandIndex4	LeftHandIndex3
LeftHandMiddle1	LeftHand
LeftHandMiddle2	LeftHandMiddle1
LeftHandMiddle3	LeftHandMiddle2
LeftHandMiddle4	LeftHandMiddle3
LeftHandRing1	LeftHand
LeftHandRing2	LeftHandRing1
LeftHandRing3	LeftHandRing2
LeftHandRing4	LeftHandRing3
LeftHandPinky1	LeftHand
LeftHandPinky2	LeftHandPinky1
LeftHandPinky3	LeftHandPinky2
LeftHandPinky4	LeftHandPinky3
RightShoulder	Spine2
RightArm	RightShoulder
RightForeArm	RightArm
RightHand	RightForeArm
RightHandPinky1	RightHand
RightHandPinky2	RightHandPinky1
RightHandPinky3	RightHandPinky2
RightHandPinky4	RightHandPinky3
RightHandRing1	RightHand
RightHandRing2	RightHandRing1
RightHandRing3	RightHandRing2
RightHandRing4	RightHandRing3
RightHandMiddle1	RightHand
RightHandMiddle2	RightHandMiddle1
RightHandMiddle3	RightHandMiddle2
RightHandMiddle4	RightHandMiddle3
RightHandIndex1	RightHand
RightHandIndex2	RightHandIndex1
RightHandIndex3	RightHandIndex2
RightHandIndex4	RightHandIndex3
RightHandThumb1	RightHand
RightHandThumb2	RightHandThumb1
RightHandThumb3	RightHandThumb2
RightHandThumb4	RightHandThumb3
LeftUpLeg	Hips
LeftLeg	LeftUpLeg
LeftFoot	LeftLeg
LeftToeBase	LeftFoot
RightUpLeg	Hips
RightLeg	RightUpLeg
RightFoot	RightLeg
RightToeBase	RightFoot
[BasePosition]
Hips	0	0	0	0	0	0	1
Spine	0	0	0	0	0	0	1
Spine1	0	0	0	0	0	0	1
Spine2	0	0	0	0	0	0	1
Neck	0	0	0	0	0	0	1
Head	0	0	0	0	0	0	1
LeftEye	0	0	0	0	0	0	1
RightEye	0	0	0	0	0	0	1
LeftShoulder	0	0	0	0	0	0	1
LeftArm	0	0	0	0	0	0	1
LeftForeArm	0	0	0	0	0	0	1
LeftHand	0	0	0	0	0	0	1
LeftHandThumb1	0	0	0	0	0	0	1
LeftHandThumb2	0	0	0	0	0	0	1
LeftHandThumb3	0	0	0	0	0	0	1
LeftHandThumb4	0	0	0	0	0	0	1
LeftHandIndex1	0	0	0	0	0	0	1
LeftHandIndex2	0	0	0	0	0	0	1
LeftHandIndex3	0	0	0	0	0	0	1
LeftHandIndex4	0	0	0	0	0	0	1
LeftHandMiddle1	0	0	0	0	0	0	1
LeftHandMiddle2	0	0	0	0	0	0	1
LeftHandMiddle3	0	0	0	0	0	0	1
LeftHandMiddle4	0	0	0	0	0	0	1
LeftHandRing1	0	0	0	0	0	0	1
LeftHandRing2	0	0	0	0	0	0	1
LeftHandRing3	0	0	0	0	0	0	1
LeftHandRing4	0	0	0	0	0	0	1
LeftHandPinky1	0	0	0	0	0	0	1
LeftHandPinky2	0	0	0	0	0	0	1
LeftHandPinky3	0	0	0	0	0	0	1
LeftHandPinky4	0	0	0	0	0	0	1
RightShoulder	0	0	0	0	0	0	1
RightArm	0	0	0	0	0	0	1
RightForeArm	0	0	0	0	0	0	1
RightHand	0	0	0	0	0	0	1
RightHandPinky1	0	0	0	0	0	0	1
RightHandPinky2	0	0	0	0	0	0	1
RightHandPinky3	0	0	0	0	0	0	1
RightHandPinky4	0	0	0	0	0	0	1
RightHandRing1	0	0	0	0	0	0	1
RightHandRing2	0	0	0	0	0	0	1
RightHandRing3	0	0	0	0	0	0	1
RightHandRing4	0	0	0	0	0	0	1
RightHandMiddle1	0	0	0	0	0	0	1
RightHandMiddle2	0	0	0	0	0	0	1
RightHandMiddle3	0	0	0	0	0	0	1
RightHandMiddle4	0	0	0	0	0	0	1
RightHandIndex1	0	0	0	0	0	0	1
RightHandIndex2	0	0	0	0	0	0	1
RightHandIndex3	0	0	0	0	0	0	1
RightHandIndex4	0	0	0	0	0	0	1
RightHandThumb1	0	0	0	0	0	0	1
RightHandThumb2	0	0	0	0	0	0	1
RightHandThumb3	0	0	0	0	0	0	1
RightHandThumb4	0	0	0	0	0	0	1
LeftUpLeg	0	0	0	0	0	0	1
LeftLeg	0	0	0	0	0	0	1
LeftFoot	0	0	0	0	0	0	1
LeftToeBase	0	0	0	0	0	0	1
RightUpLeg	0	0	0	0	0	0	1
RightLeg	0	0	0	0	0	0	1
RightFoot	0	0	0	0	0	0	1
RightToeBase	0	0	0	0	0	0	1
[Hips]
12	805.6454468	967.2657471	2.922297716	9.859805107	62.08270264	5.032788277	1.0
13	876.6036987	988.506958	4.189441204	9.112998962	63.90991974	4.655123234	1.0
14	946.5866699	995.9285889	6.788537502	7.805881977	66.04030609	2.979271889	1.0
[Spine]
12	0	101.8159943	1.315000057	5.879719257	-4.800718784	-3.386602879	1.0
13	0	101.8159943	1.315000057	5.928515911	-6.016233921	-2.438193798	1.0
14	0	101.8159943	1.315000057	5.747909546	-7.507869244	-1.41844821	1.0
[Spine1]
12	0	100.8349991	-10.00800037	4.219053745	-4.094722748	-1.074244976	1.0
13	0	100.8349991	-10.00800037	4.198937893	-4.479032993	-0.6890001297	1.0
14	0	100.8349991	-10.00800037	4.055994034	-4.865753651	-0.2058899552	1.0
[Spine2]
12	0	91	-13.73399925	4.194503307	-4.110423565	-1.098951578	1.0
13	0	91	-13.73399925	4.180876255	-4.495303631	-0.7080821395	1.0
14	0	91	-13.73399925	4.024591446	-4.891172409	-0.2180969268	1.0
[Neck]
12	0	166.7169952	-25.16200066	4.022003174	-5.546963692	-1.895553231	1.0
13	0	166.7169952	-25.16200066	4.509981155	-5.455273628	-2.213029385	1.0
14	0	166.7169952	-25.16200066	4.706968307	-5.443130493	-2.182453632	1.0
[Head]
12	0	96.17900085	16.84999847	-13.53156948	-33.41123581	15.21219826	1.0
13	0	96.17900085	16.84999847	-12.18447208	-33.63837051	13.6865778	1.0
14	0	96.17900085	16.84999847	-11.66043663	-33.70009232	13.03937817	1.0
[LeftEye]
12	30.6760006	64.09500122	92.83599854	0	0	0	1.0
13	30.6760006	64.09500122	92.83599854	0	0	0	1.0
14	30.6760006	64.09500122	92.83599854	0	0	0	1.0
[RightEye]
12	-30.6760006	64.09500122	92.83499908	0	0	0	1.0
13	-30.6760006	64.09500122	92.83499908	0	0	0	1.0
14	-30.6760006	64.09500122	92.83499908	0	0	0	1.0
[LeftShoulder]
12	45.70400238	109.4599991	-26.28000069	0.4259807169	-5.112305641	-10.15482521	1.0
13	45.70400238	109.4599991	-26.28000069	-0.4234392941	-5.998440266	-9.938598633	1.0
14	45.70400238	109.4599991	-26.28000069	-1.218953252	-6.750941277	-9.623772621	1.0
[LeftArm]
12	105.923996	-5.24600029	-22.32099915	27.08973122	-8.686728477	-60.75363159	1.0
13	105.923996	-5.24600029	-22.32099915	27.76246643	-12.47869301	-60.31937027	1.0
14	105.923996	-5.24600029	-22.32099915	27.60709572	-15.17596722	-59.49610138	1.0
[LeftForeArm]
12	278.414978	-0.0009999999311	0	1.096330834e-06	-8.031902313	-0.0002032042394	1.0
13	278.414978	-0.0009999999311	0	-3.62667862e-07	-9.510066986	-0.0002060993138	1.0
14	278.414978	-0.0009999999311	0	-1.351512879e-06	-12.21352291	-0.000201193383	1.0
[LeftHand]
12	283.2879944	0	0	0.1543760896	3.343897343	14.75211525	1.0
13	283.2879944	0	0	4.272179604	3.448055983	19.0641613	1.0
14	283.2879944	0	0	3.816693783	2.843033075	20.95917892	1.0
[LeftHandThumb1]
12	24.6609993	-15.75	26.8239994	0.9464570284	1.151123047	0.2541034818	1.0
13	24.6609993	-15.75	26.8239994	0.9464570284	1.151123047	0.2541034818	1.0
14	24.6609993	-15.75	26.8239994	0.9464570284	1.151123047	0.2541034818	1.0
[LeftHandThumb2]
12	32.29800034	-18.64699936	18.64699936	16.72680092	2.142758846	16.88677979	1.0
13	32.29800034	-18.64699936	18.64699936	16.87574387	2.729091644	17.51383972	1.0
14	32.29800034	-18.64699936	18.64699936	15.7003088	3.142250061	18.10016251	1.0
[LeftHandThumb3]
12	26.52600098	-15.31499958	15.31499958	-4.455524445	-16.44201851	23.37820625	1.0
13	26.52600098	-15.31499958	15.31499958	-4.264026642	-15.94357204	23.33028984	1.0
14	26.52600098	-15.31499958	15.31499958	-3.66573	-14.47550297	22.95592308	1.0
[LeftHandThumb4]
12	19.54599953	-11.28499985	11.28499985	0	0	0	1.0
13	19.54599953	-11.28499985	11.28499985	0	0	0	1.0
14	19.54599953	-11.28499985	11.28499985	0	0	0	1.0
[LeftHandIndex1]
12	91.09299469	-5.170999527	22.60099792	-1.635455847	0.897128284	-29.64900589	1.0
13	91.09299469	-5.170999527	22.60099792	-1.624979258	0.3006520569	-28.69048882	1.0
14	91.09299469	-5.170999527	22.60099792	-1.543880582	-0.4699773192	-27.08560753	1.0
[LeftHandIndex2]
12	36.76399994	0	0	-0.1295309663	1.223603725	-12.08488274	1.0
13	36.76399994	0	0	-0.1293662488	1.222854733	-12.077384	1.0
14	36.76399994	0	0	-0.1287641674	1.220034242	-12.04910088	1.0
[LeftHandIndex3]
12	28.83100128	0	0	-0.1347485185	1.247737885	-12.32703972	1.0
13	28.83100128	0	0	-0.134586066	1.246986747	-12.31949043	1.0
14	28.83100128	0	0	-0.1339751929	1.244181156	-12.29133511	1.0
[LeftHandIndex4]
12	23.92700005	0	0	0	0	0	1.0
13	23.92700005	0	0	0	0	0	1.0
14	23.92700005	0	0	0	0	0	1.0
[LeftHandMiddle1]
12	95.33399963	0	0	-2.265976667	4.873762131	-34.04656601	1.0
13	95.33399963	0	0	-2.220050097	4.611546516	-33.5467186	1.0
14	95.33399963	0	0	-2.130688906	4.075067043	-32.55596924	1.0
[LeftHandMiddle2]
12	36.98199844	0	0	-0.3047882617	1.862448812	-18.5862751	1.0
13	36.98199844	0	0	-0.3050459623	1.863212109	-18.59412956	1.0
14	36.98199844	0	0	-0.3039066494	1.859817505	-18.55900955	1.0
[LeftHandMiddle3]
12	29.50900078	0	0	-0.1102034152	1.129609108	-11.14390278	1.0
13	29.50900078	0	0	-0.1103567109	1.130398631	-11.15180016	1.0
14	29.50900078	0	0	-0.109668538	1.126885891	-11.11669922	1.0
[LeftHandMiddle4]
12	28.3390007	0	0	0	0	0	1.0
13	28.3390007	0	0	0	0	0	1.0
14	28.3390007	0	0	0	0	0	1.0
[LeftHandRing1]
12	91.04499817	-0.4390000105	-18.65100098	-2.439049244	7.8433671	-35.94940186	1.0
13	91.04499817	-0.4390000105	-18.65100098	-2.413892984	7.885390759	-35.68188477	1.0
14	91.04499817	-0.4390000105	-18.65100098	-2.320985079	7.748734474	-34.66785812	1.0
[LeftHandRing2]
12	31.54000092	0	0	-0.4658979774	2.286075354	-23.03536797	1.0
13	31.54000092	0	0	-0.4688181281	2.292931318	-23.10852432	1.0
14	31.54000092	0	0	-0.4714708328	2.299117327	-23.17459679	1.0
[LeftHandRing3]
12	29.37700081	0	0	-0.334387064	1.948205233	-19.47644806	1.0
13	29.37700081	0	0	-0.336885184	1.955260992	-19.54987335	1.0
14	29.37700081	0	0	-0.3391882181	1.961717248	-19.61713982	1.0
[LeftHandRing4]
12	26.47500038	0	0	0	0	0	1.0
13	26.47500038	0	0	0	0	0	1.0
14	26.47500038	0	0	0	0	0	1.0
[LeftHandPinky1]
12	80.77799988	-4.887000084	-38.06099701	-2.631567717	5.349163055	-37.8520813	1.0
13	80.77799988	-4.887000084	-38.06099701	-2.622469664	5.749462605	-37.64427948	1.0
14	80.77799988	-4.887000084	-38.06099701	-2.568560123	5.498389244	-37.12921906	1.0
[LeftHandPinky2]
12	36	0	0	-0.4938807189	2.350723505	-23.72689438	1.0
13	36	0	0	-0.500213325	2.365077734	-23.88091469	1.0
14	36	0	0	-0.5039164424	2.373409748	-23.97042274	1.0
[LeftHandPinky3]
12	21.14200211	0	0	-0.2145843804	1.569032669	-15.57440853	1.0
13	21.14200211	0	0	-0.2189659476	1.584647298	-15.73353863	1.0
14	21.14200211	0	0	-0.2215790749	1.593870282	-15.82757473	1.0
[LeftHandPinky4]
12	19.75699997	0	0	0	0	0	1.0
13	19.75699997	0	0	0	0	0	1.0
14	19.75699997	0	0	0	0	0	1.0
[RightShoulder]
12	-45.70000076	109.4620056	-26.28000069	0.5009625554	2.151800394	8.292446136	1.0
13	-45.70000076	109.4620056	-26.28000069	0.7087674737	0.2323900461	7.875950813	1.0
14	-45.70000076	109.4620056	-26.28000069	0.9152911901	-1.575384974	7.67137289	1.0
[RightArm]
12	-105.9280014	-5.248000145	-22.32099915	17.91739273	14.36077023	71.13349152	1.0
13	-105.9280014	-5.248000145	-22.32099915	18.03454208	12.25067997	70.47978973	1.0
14	-105.9280014	-5.248000145	-22.32099915	17.93244743	9.477043152	69.20426178	1.0
[RightForeArm]
12	-278.414978	0	0	8.121865903e-06	34.57822037	2.945860797e-05	1.0
13	-278.414978	0	0	2.270532022e-22	33.39039993	4.783983968e-06	1.0
14	-278.414978	0	0	-5.744767805e-06	30.40054893	1.705693762e-06	1.0
[RightHand]
12	-283.2879944	0	0.0009999999311	10.02595329	25.8944664	-5.040418148	1.0
13	-283.2879944	0	0.0009999999311	8.910464287	21.76536369	-4.811430931	1.0
14	-283.2879944	0	0.0009999999311	8.031690598	16.44692612	-4.102474213	1.0
[RightHandPinky1]
12	-80.76699829	-4.885000229	-38.06000137	-1.624786973	-3.385105371	28.53390503	1.0
13	-80.76699829	-4.885000229	-38.06000137	-1.600436449	-3.604506969	28.20124435	1.0
14	-80.76699829	-4.885000229	-38.06000137	-1.594768524	-3.461865187	28.12565613	1.0
[RightHandPinky2]
12	-36	0	0.0009999999311	-0.3654567301	-1.804734707	22.91345596	1.0
13	-36	0	0.0009999999311	-0.3650151491	-1.803674579	22.89927292	1.0
14	-36	0	0.0009999999311	-0.3651572466	-1.80400002	22.90372849	1.0
[RightHandPinky3]
12	-21.14200211	0	0	-0.4165608287	-1.921193361	24.46578217	1.0
13	-21.14200211	0	0	-0.4186479747	-1.925803065	24.52819633	1.0
14	-21.14200211	0	0	-0.4189702868	-1.926502824	24.53779221	1.0
[RightHandPinky4]
12	-19.75699997	0	0	0	0	0	1.0
13	-19.75699997	0	0	0	0	0	1.0
14	-19.75699997	0	0	0	0	0	1.0
[RightHandRing1]
12	-91.03599548	-0.4390000105	-18.65100098	-1.758335233	-3.166203022	30.52863503	1.0
13	-91.03599548	-0.4390000105	-18.65100098	-1.811990738	-3.055675268	31.23690987	1.0
14	-91.03599548	-0.4390000105	-18.65100098	-1.848210216	-2.94863677	31.71104622	1.0
[RightHandRing2]
12	-31.54000092	0	0	-0.690387249	-2.434419155	31.66191292	1.0
13	-31.54000092	0	0	-0.6977344155	-2.446279287	31.83445549	1.0
14	-31.54000092	0	0	-0.6982656717	-2.447143078	31.84691238	1.0
[RightHandRing3]
12	-29.37700081	0	0	-0.7676857114	-2.555416584	33.43746948	1.0
13	-29.37700081	0	0	-0.7755130529	-2.567207098	33.61259842	1.0
14	-29.37700081	0	0	-0.7760747671	-2.56807065	33.62524796	1.0
[RightHandRing4]
12	-26.47500038	0	0	0	0	0	1.0
13	-26.47500038	0	0	0	0	0	1.0
14	-26.47500038	0	0	0	0	0	1.0
[RightHandMiddle1]
12	-95.32500458	0	0	-2.042888165	-1.308102608	34.25534439	1.0
13	-95.32500458	0	0	-2.069314003	-1.251984954	34.59261703	1.0
14	-95.32500458	0	0	-2.090021372	-1.279601812	34.85315704	1.0
[RightHandMiddle2]
12	-36.98199844	0	0	-0.4459936917	-1.984583855	25.32965279	1.0
13	-36.98199844	0	0	-0.4546033144	-2.002604485	25.5765152	1.0
14	-36.98199844	0	0	-0.4590044618	-2.01176095	25.70200729	1.0
[RightHandMiddle3]
12	-29.50900078	0	0	-0.3119538724	-1.674432993	21.13019371	1.0
13	-29.50900078	0	0	-0.3192781508	-1.693253517	21.37965965	1.0
14	-29.50900078	0	0	-0.3230349422	-1.702796459	21.50650978	1.0
[RightHandMiddle4]
12	-28.3390007	0	0.0009999999311	0	0	0	1.0
13	-28.3390007	0	0.0009999999311	0	0	0	1.0
14	-28.3390007	0	0.0009999999311	0	0	0	1.0
[RightHandIndex1]
12	-91.08300018	-5.167999744	22.60099792	-0.8358427882	6.879332066	18.81006432	1.0
13	-91.08300018	-5.167999744	22.60099792	-0.8348036408	6.768501759	18.94665718	1.0
14	-91.08300018	-5.167999744	22.60099792	-0.875813365	6.636647701	19.69038773	1.0
[RightHandIndex2]
12	-36.76399994	0	0	-0.5720000863	-2.231254578	28.75415421	1.0
13	-36.76399994	0	0	-0.5753249526	-2.237301826	28.83960915	1.0
14	-36.76399994	0	0	-0.5765321851	-2.23948884	28.87046814	1.0
[RightHandIndex3]
12	-28.83100128	0	0	-0.2358237952	-1.460324287	18.34567642	1.0
13	-28.83100128	0	0	-0.2380368263	-1.466937304	18.43198013	1.0
14	-28.83100128	0	0	-0.2388327569	-1.469333649	18.46314049	1.0
[RightHandIndex4]
12	-23.92700005	0	0	0	0	0	1.0
13	-23.92700005	0	0	0	0	0	1.0
14	-23.92700005	0	0	0	0	0	1.0
[RightHandThumb1]
12	-24.64799881	-15.72700024	26.82600021	30.15343666	21.14214134	-10.25145817	1.0
13	-24.64799881	-15.72700024	26.82600021	30.15343666	21.14214134	-10.25145817	1.0
14	-24.64799881	-15.72700024	26.82600021	30.15343666	21.14214134	-10.25145817	1.0
[RightHandThumb2]
12	-32.29800034	-18.64699936	18.64699936	10.17420864	-21.17755127	0.1975954026	1.0
13	-32.29800034	-18.64699936	18.64699936	9.523609161	-23.71652031	0.1233412623	1.0
14	-32.29800034	-18.64699936	18.64699936	9.946501732	-24.39984894	0.2233689427	1.0
[RightHandThumb3]
12	-26.52600098	-15.31399918	15.31399918	-11.77882481	-13.82816219	-10.28645134	1.0
13	-26.52600098	-15.31399918	15.31399918	-11.76692295	-13.85546112	-10.27892685	1.0
14	-26.52600098	-15.31399918	15.31399918	-11.77934837	-13.82693577	-10.28678036	1.0
[RightHandThumb4]
12	-19.54599953	-11.28499985	11.28499985	0	0	0	1.0
13	-19.54599953	-11.28499985	11.28499985	0	0	0	1.0
14	-19.54599953	-11.28499985	11.28499985	0	0	0	1.0
[LeftUpLeg]
12	82.07800293	-67.51699829	-15.99599934	-34.310009	7.204811096	-4.38520813	1.0
13	82.07800293	-67.51699829	-15.99599934	-26.39825821	6.326463699	-5.489142418	1.0
14	82.07800293	-67.51699829	-15.99599934	-19.84619331	6.256604195	-5.77738905	1.0
[LeftLeg]
12	0	-443.7049866	2.845999956	39.8663559	-0.374184072	-0.5751790404	1.0
13	0	-443.7049866	2.845999956	33.96453476	-0.7067756653	-0.7993608117	1.0
14	0	-443.7049866	2.845999956	29.18176651	-2.081833363	-1.347693563	1.0
[LeftFoot]
12	0	-444.2789917	-29.8219986	-11.15224838	0.4399071336	1.588335156	1.0
13	0	-444.2789917	-29.8219986	-12.77076912	0.6146414876	3.295796871	1.0
14	0	-444.2789917	-29.8219986	-14.60694218	0.6595572233	5.042102814	1.0
[LeftToeBase]
12	0	-87.28699493	107.1060028	-8.787549019	-1.558226359e-05	2.115629741e-06	1.0
13	0	-87.28699493	107.1060028	-8.573127747	1.482824337e-05	9.125041629e-07	1.0
14	0	-87.28699493	107.1060028	-8.104999542	9.849164599e-06	4.746778473e-07	1.0
[RightUpLeg]
12	-82.07800293	-67.51699829	-15.99599934	-22.55884743	1.689349055	-15.73078632	1.0
13	-82.07800293	-67.51699829	-15.99599934	-28.5768261	-0.07280843705	-10.42093372	1.0
14	-82.07800293	-67.51699829	-15.99599934	-31.74133301	-0.3593800366	-5.842383862	1.0
[RightLeg]
12	0	-443.7049866	2.861999989	71.31830597	2.920636415	9.440686226	1.0
13	0	-443.7049866	2.861999989	68.84374237	2.715086699	7.450753689	1.0
14	0	-443.7049866	2.861999989	55.9444809	1.976048231	4.877912521	1.0
[RightFoot]
12	0	-444.2770081	-29.83799934	6.306919098	0.525714457	1.645301104	1.0
13	0	-444.2770081	-29.83799934	2.120434284	-0.08801241964	2.788603306	1.0
14	0	-444.2770081	-29.83799934	-0.2328962833	-0.1137358546	4.120213985	1.0
[RightToeBase]
12	0	-87.28699493	107.1060028	-10.62719822	-1.70818621e-05	5.212569249e-06	1.0
13	0	-87.28699493	107.1060028	-8.963160515	-1.176768183e-05	5.588887689e-06	1.0
14	0	-87.28699493	107.1060028	-8.06125164	-1.299020369e-05	2.830468929e-06	1.0
[EndOfFile]
